<mxfile host="app.diagrams.net" modified="2022-12-16T03:01:31.950Z" agent="5.0 (Macintosh; Intel Mac OS X 10_15_7) AppleWebKit/537.36 (KHTML, like Gecko) Chrome/108.0.0.0 Safari/537.36" etag="WXpCunWKYYTRVgeVOfxu" version="20.6.0" type="github">
  <diagram id="3228e29e-7158-1315-38df-8450db1d8a1d" name="Page-1">
    <mxGraphModel dx="739" dy="429" grid="0" gridSize="10" guides="1" tooltips="1" connect="1" arrows="1" fold="1" page="1" pageScale="1" pageWidth="400" pageHeight="180" background="#EFF1F3" math="0" shadow="0">
      <root>
        <mxCell id="0" />
        <mxCell id="1" parent="0" />
        <mxCell id="oCisaKoarw-qiyTtue1i-1" value="" style="shape=image;verticalLabelPosition=bottom;labelBackgroundColor=default;verticalAlign=top;aspect=fixed;imageAspect=0;image=data:image/svg+xml,PHN2ZyB4bWxuczp4bGluaz0iaHR0cDovL3d3dy53My5vcmcvMTk5OS94bGluayIgeG1sbnM9Imh0dHA6Ly93d3cudzMub3JnLzIwMDAvc3ZnIiBoZWlnaHQ9IjEyOCIgd2lkdGg9IjEyOCIgdmVyc2lvbj0iMS4xIiB2aWV3Qm94PSIwIDAgMTAyNCAxMDI0IiBjbGFzcz0iaWNvbiI+PHBhdGggZmlsbD0iIzRBOTE5QiIgZD0iTTUxNC4yMzU4MDggMzg2LjA0OTQ5MWM0My4yMjU2MTktMS40OTA1MzkgODYuNDUxMjM3IDAgMTMxLjE2NzM5NCAwIDEuNDkwNTM5LTE5LjM3NzAwMSA1Ljk2MjE1NC0zOC43NTQwMDMgMjAuODY3NTQtNTAuNjc4MzEyIDE0LjkwNTM4Ni0xNC45MDUzODYgMzcuMjYzNDY0LTE3Ljg4NjQ2MyA1Ni42NDA0NjYtMTMuNDE0ODQ3IDEwLjQzMzc3IDEuNDkwNTM5IDEzOC42MjAwODcgMTYuMzk1OTI0IDE2NS40NDk3ODIgMTkuMzc3MDAxIDIwLjg2NzU0IDAgNDAuMjQ0NTQxIDExLjkyNDMwOSA0OS4xODc3NzMgMzEuMzAxMzEgMTEuOTI0MzA5IDI1LjMzOTE1NiA3LjQ1MjY5MyA1Mi4xNjg4NSA3LjQ1MjY5MyA4MC40ODkwODMgNy40NTI2OTMgMCAxMy40MTQ4NDcgMS40OTA1MzkgMjAuODY3NTQgMS40OTA1MzkgMTcuODg2NDYzIDEuNDkwNTM5IDMxLjMwMTMxIDEuNDkwNTM5IDM4Ljc1NDAwMyAxLjQ5MDUzOFY1MjEuNjg4NTAxaC00MC4yNDQ1NDItMTkuMzc3MDAxdjYxLjExMjA4MWMwIDcuNDUyNjkzLTEuNDkwNTM5IDEzLjQxNDg0Ny0yLjk4MTA3OCAyMC44Njc1NC01Ljk2MjE1NCAxMy40MTQ4NDctMTQuOTA1Mzg2IDI4LjMyMDIzMy0yOS44MTA3NzEgMzQuMjgyMzg3LTE0LjkwNTM4NiAyLjk4MTA3Ny0yOS44MTA3NzEgNC40NzE2MTYtNDQuNzE2MTU3IDQuNDcxNjE2SDg2NC41MTIzNzNjLTM0LjI4MjM4NyA0LjQ3MTYxNi0xNDYuMDcyNzggMTYuMzk1OTI0LTE2Ni45NDAzMjEgMTcuODg2NDYzLTIyLjM1ODA3OSAwLTQwLjI0NDU0MS0xNy44ODY0NjMtNDcuNjk3MjM0LTM4Ljc1NDAwMy00LjQ3MTYxNi0xNC45MDUzODYtNC40NzE2MTYtMjkuODEwNzcxLTQuNDcxNjE2LTQ0LjcxNjE1N2gtMTIyLjIyNDE2M2MtNy40NTI2OTMgMC0xNi4zOTU5MjQgMC0yMC44Njc1NC01Ljk2MjE1NC04Ljk0MzIzMS0xMC40MzM3Ny0xLjQ5MDUzOS0zMi43OTE4NDkgMTMuNDE0ODQ3LTMxLjMwMTMxIDQzLjIyNTYxOS0xLjQ5MDUzOSA4Ni40NTEyMzcgMCAxMjkuNjc2ODU2LTEuNDkwNTM5di05NS4zOTQ0NjktMTMuNDE0ODQ3Yy00My4yMjU2MTkgMC04Ni40NTEyMzcgMS40OTA1MzktMTI4LjE4NjMxNyAwLTI1LjMzOTE1NiAxLjQ5MDUzOS0yNi44Mjk2OTQtNDEuNzM1MDgtMi45ODEwNzctNDMuMjI1NjE4eiIvPjxwYXRoIGZpbGw9IiM0QTkxOUIiIGQ9Ik04NTcuMDU5NjggNTg1Ljc4MTY1OWM4Ljk0MzIzMSAwIDE0LjkwNTM4Ni03LjQ1MjY5MyAxNC45MDUzODYtMTQuOTA1Mzg1VjQxNS44NjAyNjJjMC04Ljk0MzIzMS03LjQ1MjY5My0xNC45MDUzODYtMTQuOTA1Mzg2LTE0LjkwNTM4Ni04Ljk0MzIzMSAwLTE0LjkwNTM4NiA3LjQ1MjY5My0xNC45MDUzODYgMTQuOTA1Mzg2djE1NS4wMTYwMTJjMCA4Ljk0MzIzMSA1Ljk2MjE1NCAxNC45MDUzODYgMTQuOTA1Mzg2IDE0LjkwNTM4NXpNODAzLjQwMDI5MSA1ODcuMjcyMTk4YzguOTQzMjMxIDAgMTQuOTA1Mzg2LTcuNDUyNjkzIDE0LjkwNTM4Ni0xNC45MDUzODZWNDE3LjM1MDgwMWMwLTguOTQzMjMxLTcuNDUyNjkzLTE0LjkwNTM4Ni0xNC45MDUzODYtMTQuOTA1Mzg2LTguOTQzMjMxIDAtMTQuOTA1Mzg2IDcuNDUyNjkzLTE0LjkwNTM4NiAxNC45MDUzODZ2MTU1LjAxNjAxMWMwIDcuNDUyNjkzIDcuNDUyNjkzIDE0LjkwNTM4NiAxNC45MDUzODYgMTQuOTA1Mzg2ek00MjYuMjk0MDMyIDI2Mi4zMzQ3ODloLTM1Ny43MjkyNThjLTI2LjgyOTY5NCAwLTQ5LjE4Nzc3MyAyMi4zNTgwNzktNDkuMTg3NzczIDQ5LjE4Nzc3M1Y2NzAuNzQyMzU4YzAgMjYuODI5Njk0IDIyLjM1ODA3OSA0OS4xODc3NzMgNDkuMTg3NzczIDQ5LjE4Nzc3M2gzNTkuMjE5Nzk3YzI2LjgyOTY5NCAwIDQ5LjE4Nzc3My0yMi4zNTgwNzkgNDkuMTg3NzczLTQ5LjE4Nzc3M1YzMTEuNTIyNTYyYy0xLjQ5MDUzOS0yOC4zMjAyMzMtMjMuODQ4NjE3LTQ5LjE4Nzc3My01MC42NzgzMTItNDkuMTg3Nzczek0xNjYuOTQwMzIgNTIwLjE5Nzk2MmMtMTYuMzk1OTI0IDAtMjkuODEwNzcxLTEzLjQxNDg0Ny0yOS44MTA3NzEtMjkuODEwNzcxczEzLjQxNDg0Ny0yOS44MTA3NzEgMjkuODEwNzcxLTI5LjgxMDc3MiAyOS44MTA3NzEgMTMuNDE0ODQ3IDI5LjgxMDc3MiAyOS44MTA3NzJjLTEuNDkwNTM5IDE2LjM5NTkyNC0xNC45MDUzODYgMjkuODEwNzcxLTI5LjgxMDc3MiAyOS44MTA3NzF6IG0xNjAuOTc4MTY2IDBjLTE2LjM5NTkyNCAwLTI5LjgxMDc3MS0xMy40MTQ4NDctMjkuODEwNzcxLTI5LjgxMDc3MXMxMy40MTQ4NDctMjkuODEwNzcxIDI5LjgxMDc3MS0yOS44MTA3NzIgMjkuODEwNzcxIDEzLjQxNDg0NyAyOS44MTA3NzIgMjkuODEwNzcyLTEzLjQxNDg0NyAyOS44MTA3NzEtMjkuODEwNzcyIDI5LjgxMDc3MXoiLz48L3N2Zz4=;" parent="1" vertex="1">
          <mxGeometry x="113" y="362" width="175" height="175" as="geometry" />
        </mxCell>
      </root>
    </mxGraphModel>
  </diagram>
</mxfile>
